<?xml version="1.0" encoding="UTF-8" standalone="no"?>
<!DOCTYPE svg PUBLIC "-//W3C//DTD SVG 1.1//EN"
 "http://www.w3.org/Graphics/SVG/1.1/DTD/svg11.dtd">
<!-- Generated by graphviz version 12.2.1 (20241206.2353)
 -->
<!-- Pages: 1 -->
<svg width="80pt" height="265pt"
 viewBox="0.00 0.00 80.00 265.00" xmlns="http://www.w3.org/2000/svg" xmlns:xlink="http://www.w3.org/1999/xlink">
<g id="graph0" class="graph" transform="scale(1 1) rotate(0) translate(4 261)">
<polygon fill="white" stroke="none" points="-4,4 -4,-261 76,-261 76,4 -4,4"/>
<!-- n0 -->
<g id="node1" class="node">
<title>n0</title>
<polygon fill="lightblue" stroke="black" points="72,-257 0,-257 0,-216 72,-216 72,-257"/>
<text text-anchor="middle" x="36" y="-239.7" font-family="Times New Roman,serif" font-size="14.00">40</text>
<text text-anchor="middle" x="36" y="-223.2" font-family="Times New Roman,serif" font-size="14.00">(top)</text>
</g>
<!-- n1 -->
<g id="node2" class="node">
<title>n1</title>
<polygon fill="lightblue" stroke="black" points="72,-180 0,-180 0,-144 72,-144 72,-180"/>
<text text-anchor="middle" x="36" y="-156.95" font-family="Times New Roman,serif" font-size="14.00">30</text>
</g>
<!-- n0&#45;&gt;n1 -->
<g id="edge1" class="edge">
<title>n0&#45;&gt;n1</title>
<path fill="none" stroke="black" d="M36,-215.69C36,-208.25 36,-199.64 36,-191.57"/>
<polygon fill="black" stroke="black" points="39.5,-191.83 36,-181.83 32.5,-191.83 39.5,-191.83"/>
</g>
<!-- n2 -->
<g id="node3" class="node">
<title>n2</title>
<polygon fill="lightblue" stroke="black" points="72,-108 0,-108 0,-72 72,-72 72,-108"/>
<text text-anchor="middle" x="36" y="-84.95" font-family="Times New Roman,serif" font-size="14.00">20</text>
</g>
<!-- n1&#45;&gt;n2 -->
<g id="edge2" class="edge">
<title>n1&#45;&gt;n2</title>
<path fill="none" stroke="black" d="M36,-143.7C36,-136.41 36,-127.73 36,-119.54"/>
<polygon fill="black" stroke="black" points="39.5,-119.62 36,-109.62 32.5,-119.62 39.5,-119.62"/>
</g>
<!-- n3 -->
<g id="node4" class="node">
<title>n3</title>
<polygon fill="lightblue" stroke="black" points="72,-36 0,-36 0,0 72,0 72,-36"/>
<text text-anchor="middle" x="36" y="-12.95" font-family="Times New Roman,serif" font-size="14.00">10</text>
</g>
<!-- n2&#45;&gt;n3 -->
<g id="edge3" class="edge">
<title>n2&#45;&gt;n3</title>
<path fill="none" stroke="black" d="M36,-71.7C36,-64.41 36,-55.73 36,-47.54"/>
<polygon fill="black" stroke="black" points="39.5,-47.62 36,-37.62 32.5,-47.62 39.5,-47.62"/>
</g>
</g>
</svg>
